<?xml version="1.0" encoding="UTF-8" standalone="no"?>
<svg
   xmlns:dc="http://purl.org/dc/elements/1.1/"
   xmlns:cc="http://creativecommons.org/ns#"
   xmlns:rdf="http://www.w3.org/1999/02/22-rdf-syntax-ns#"
   xmlns:svg="http://www.w3.org/2000/svg"
   xmlns="http://www.w3.org/2000/svg"
   viewBox="0 0 691.14532 268.81067"
   height="268.81067"
   width="691.14532"
   xml:space="preserve"
   id="svg2"
   version="1.1"><metadata
     id="metadata8"><rdf:RDF><cc:Work
         rdf:about=""><dc:format>image/svg+xml</dc:format><dc:type
           rdf:resource="http://purl.org/dc/dcmitype/StillImage" /></cc:Work></rdf:RDF></metadata><defs
     id="defs6"><clipPath
       id="clipPath18"
       clipPathUnits="userSpaceOnUse"><path
         id="path16"
         d="M 0,201.608 H 518.359 V 0 H 0 Z" /></clipPath></defs><g
     transform="matrix(1.3333333,0,0,-1.3333333,0,268.81067)"
     id="g10"><g
       id="g12"><g
         clip-path="url(#clipPath18)"
         id="g14"><g
           transform="translate(450.1675,192.1978)"
           id="g20"><path
             id="path22"
             style="fill:#656263;fill-opacity:1;fill-rule:evenodd;stroke:none"
             d="m 0,0 c -12.856,5.319 -26.303,7.831 -40.489,7.831 h -300.998 c -14.186,0 -27.781,-2.512 -40.636,-7.831 -12.413,-4.877 -23.496,-11.969 -33.1,-21.131 h -0.148 c -9.605,-9.162 -17.141,-19.653 -22.46,-31.622 v 0.148 c -5.467,-12.413 -8.275,-25.269 -8.275,-38.715 0,-13.595 2.808,-26.45 8.275,-38.861 5.319,-11.822 12.855,-22.314 22.608,-31.476 h -0.148 c 9.605,-9.16 20.687,-16.105 33.248,-21.13 12.855,-5.171 26.45,-7.831 40.636,-7.831 h 300.998 c 14.186,0 27.633,2.66 40.489,7.831 12.56,5.025 23.642,11.97 33.394,21.13 9.604,9.162 17.14,19.654 22.313,31.476 5.615,12.411 8.275,25.266 8.423,38.714 v 0.147 c -0.148,13.446 -2.808,26.45 -8.423,38.715 v -0.148 C 50.534,-40.784 42.998,-30.293 33.394,-21.131 23.642,-11.969 12.56,-4.877 0,0 m -40.489,-5.468 c 12.414,0 24.234,-2.217 35.612,-6.797 10.786,-4.433 20.539,-10.491 29.11,-18.619 8.275,-7.832 14.777,-16.992 19.357,-27.188 4.728,-10.639 7.093,-21.722 7.241,-33.248 v -0.147 c -0.148,-11.526 -2.513,-22.609 -7.241,-33.247 -4.58,-10.344 -11.082,-19.358 -19.357,-27.337 -8.422,-7.831 -18.176,-14.037 -29.11,-18.471 -11.378,-4.433 -23.198,-6.797 -35.612,-6.797 h -300.998 c -12.413,0 -24.382,2.364 -35.612,6.797 -10.935,4.434 -20.688,10.64 -29.11,18.471 -8.422,7.979 -14.925,16.993 -19.505,27.337 -4.729,10.638 -7.093,21.721 -7.093,33.394 0,11.526 2.364,22.609 7.093,33.248 4.58,10.196 11.083,19.356 19.505,27.188 v 0.149 c 8.422,7.979 18.175,14.037 29.11,18.47 11.23,4.58 23.199,6.797 35.612,6.797 z" /></g><g
           transform="translate(358.2563,155.6992)"
           id="g24"><path
             id="path26"
             style="fill:#656263;fill-opacity:1;fill-rule:evenodd;stroke:none"
             d="m 0,0 c -0.887,-0.591 -1.626,-1.478 -2.217,-2.512 -6.353,-13.89 -9.605,-32.804 -9.605,-56.889 0,-9.753 1.036,-19.654 2.957,-29.554 0.737,-4.581 2.511,-11.969 5.318,-22.164 0.296,-1.183 0.887,-2.365 2.068,-3.105 1.036,-0.885 2.217,-1.181 3.547,-1.181 h 35.464 c 1.625,0 2.955,0.591 4.138,1.626 1.182,1.18 1.773,2.66 1.773,4.284 0,1.626 -0.591,2.956 -1.773,4.138 -1.183,1.181 -2.513,1.626 -4.138,1.626 H 6.648 C 4.729,-96.048 3.399,-90.433 2.66,-86.739 1.034,-78.021 0.147,-69.45 0,-60.731 h 30.587 c 1.773,0 3.102,0.443 4.286,1.626 1.182,1.18 1.625,2.511 1.625,4.284 0,1.625 -0.443,2.955 -1.625,4.137 -1.184,1.183 -2.513,1.773 -4.286,1.773 H 0.295 c 0.591,15.22 2.956,27.928 6.945,38.124 h 31.475 c 1.772,0 3.102,0.591 4.285,1.773 1.183,1.182 1.625,2.512 1.625,4.138 0,1.625 -0.442,3.103 -1.625,4.137 -1.183,1.182 -2.513,1.773 -4.285,1.773 H 3.251 C 2.068,1.034 1.034,0.739 0,0" /></g><g
           transform="translate(335.7954,121.1221)"
           id="g28"><path
             id="path30"
             style="fill:#656263;fill-opacity:1;fill-rule:evenodd;stroke:none"
             d="m 0,0 v 0.148 c 1.626,11.229 -0.738,20.244 -7.093,26.745 -6.354,7.388 -17.435,10.344 -33.543,8.718 h -1.034 c -2.216,-0.148 -3.546,-0.295 -4.434,-0.591 -0.885,-0.147 -1.772,-0.591 -2.51,-1.182 -0.74,-0.739 -1.184,-1.478 -1.478,-2.365 -3.251,-7.979 -5.32,-18.322 -6.354,-31.178 -0.888,-11.525 -0.888,-23.789 0.296,-36.646 h -0.149 c 1.034,-12.264 2.66,-22.903 5.025,-31.917 v -0.148 c 1.182,-4.285 2.364,-7.832 3.694,-10.639 0.591,-1.477 1.626,-2.511 3.25,-3.103 1.478,-0.592 2.955,-0.592 4.581,0.148 1.478,0.591 2.512,1.625 3.103,3.251 0.444,1.477 0.444,2.956 -0.147,4.433 -1.035,2.364 -2.069,5.467 -2.956,9.013 -2.217,8.423 -3.841,18.324 -4.729,29.849 -0.147,2.808 -0.442,5.319 -0.442,7.98 15.958,-1.33 27.041,0.296 33.246,4.728 v 0.148 c 3.546,2.512 6.355,5.762 8.276,10.195 C -1.92,-9.458 -0.887,-5.171 0,0 m -40.339,23.79 c 0.295,0.148 0.59,0.148 0.886,0.148 11.231,1.034 19.061,-0.591 23.79,-5.024 3.694,-4.286 5.024,-9.9 3.989,-16.994 -0.737,-4.137 -1.476,-7.24 -2.511,-9.604 -0.886,-2.069 -2.365,-3.99 -3.991,-5.172 -5.171,-2.955 -14.185,-3.99 -27.04,-2.808 0,5.172 0.147,10.196 0.591,15.072 0.739,9.606 2.216,17.881 4.286,24.382" /></g><g
           transform="translate(411.1567,156.29)"
           id="g32"><path
             id="path34"
             style="fill:#656263;fill-opacity:1;fill-rule:evenodd;stroke:none"
             d="m 0,0 c -1.626,0 -3.104,-0.591 -4.138,-1.773 -1.182,-1.035 -1.773,-2.512 -1.773,-4.137 0,-1.626 0.591,-2.956 1.773,-4.138 1.034,-1.182 2.512,-1.773 4.138,-1.773 h 18.323 v -100.037 c 0,-1.626 0.739,-2.956 1.921,-4.138 1.034,-1.182 2.512,-1.774 3.988,-1.774 1.775,0 3.104,0.592 4.287,1.774 1.181,1.182 1.625,2.512 1.625,4.138 v 100.037 h 18.323 c 1.625,0 2.955,0.591 4.137,1.773 1.183,1.182 1.774,2.512 1.774,4.138 0,1.625 -0.591,3.102 -1.774,4.137 C 51.422,-0.591 50.092,0 48.467,0 Z" /></g><g
           transform="translate(134.687,154.3687)"
           id="g36"><path
             id="path38"
             style="fill:#656263;fill-opacity:1;fill-rule:evenodd;stroke:none"
             d="m 0,0 c -3.251,-3.103 -6.207,-7.536 -8.571,-13.298 -4.876,-11.083 -7.241,-24.382 -7.241,-39.897 0,-15.664 2.365,-28.963 7.241,-40.044 2.364,-5.615 5.32,-10.049 8.571,-13.3 4.137,-3.99 8.422,-5.91 13.151,-5.762 4.58,-0.148 9.013,1.772 13.151,5.762 3.251,3.251 6.058,7.685 8.571,13.3 4.876,11.081 7.24,24.38 7.24,39.896 v 0.148 c 0,15.515 -2.364,28.814 -7.24,39.897 C 32.36,-7.536 29.553,-3.103 26.302,0 22.164,3.99 17.731,6.059 13.151,5.911 8.422,6.059 4.137,3.99 0,0 m 8.274,-8.57 v 0.148 c 1.478,1.477 3.103,2.364 4.877,2.512 1.625,-0.148 3.251,-1.035 4.876,-2.512 V -8.57 c 2.217,-2.217 4.285,-5.32 6.058,-9.457 4.138,-9.605 6.207,-21.426 6.207,-35.168 v -0.148 c 0,-13.742 -2.069,-25.416 -6.207,-35.167 -1.773,-4.139 -3.841,-7.241 -6.058,-9.605 -1.625,-1.478 -3.251,-2.365 -4.876,-2.365 -1.774,0 -3.399,0.887 -4.877,2.365 -2.364,2.364 -4.285,5.466 -6.058,9.605 -4.138,9.751 -6.206,21.425 -6.206,35.315 0,13.742 2.068,25.416 6.206,35.168 1.773,4.137 3.694,7.24 6.058,9.457" /></g><g
           transform="translate(100.7007,131.022)"
           id="g40"><path
             id="path42"
             style="fill:#656263;fill-opacity:1;fill-rule:evenodd;stroke:none"
             d="m 0,0 c 0.739,-1.478 1.625,-2.512 3.103,-3.25 1.478,-0.592 2.955,-0.592 4.581,0 1.625,0.59 2.659,1.625 3.251,3.25 0.59,1.478 0.59,2.955 0,4.433 -2.809,7.24 -5.764,12.56 -8.571,15.811 -4.432,5.172 -9.162,7.684 -14.629,7.536 -4.876,0.148 -9.604,-1.773 -13.89,-5.615 -3.694,-3.251 -6.797,-7.684 -9.457,-13.446 V 8.57 c -5.467,-11.082 -8.127,-24.528 -8.127,-40.487 0,-15.664 2.955,-28.814 8.718,-39.454 2.956,-5.467 6.207,-9.603 10.048,-12.559 v -0.149 c 4.434,-3.251 9.015,-5.023 13.595,-5.023 h 0.148 c 6.796,0.147 12.116,2.807 16.401,7.832 3.399,4.284 6.354,11.23 8.719,20.981 0.296,1.478 0.148,2.956 -0.591,4.434 -0.886,1.33 -2.216,2.216 -3.695,2.66 -1.625,0.443 -3.103,0.148 -4.433,-0.739 -1.477,-0.739 -2.364,-2.068 -2.807,-3.547 -1.774,-7.683 -3.989,-13.003 -6.354,-16.253 -1.921,-2.365 -4.285,-3.399 -7.24,-3.548 -2.217,0.149 -4.286,1.035 -6.502,2.66 l 0.148,-0.146 c -2.66,2.215 -5.024,5.171 -6.946,9.013 -5.024,9.161 -7.388,20.539 -7.388,33.838 0,13.889 2.217,25.711 6.945,35.464 v 0.147 c 1.921,4.138 4.138,7.389 6.65,9.606 1.921,1.772 3.842,2.658 5.91,2.658 h 0.148 c 1.921,-0.147 3.842,-1.181 5.467,-3.25 C -4.581,9.9 -2.217,5.762 0,0" /></g><g
           transform="translate(202.0679,158.9497)"
           id="g44"><path
             id="path46"
             style="fill:#656263;fill-opacity:1;fill-rule:evenodd;stroke:none"
             d="m 0,0 c -1.478,-0.443 -2.66,-1.33 -3.399,-2.808 -6.649,-11.968 -9.9,-31.178 -9.9,-57.481 0,-25.12 3.103,-44.033 9.605,-56.889 0.739,-1.329 1.774,-2.365 3.399,-2.955 1.477,-0.445 2.955,-0.296 4.433,0.296 1.477,0.739 2.511,1.92 2.955,3.398 0.591,1.625 0.443,3.104 -0.148,4.581 -5.763,11.673 -8.423,28.815 -8.423,51.569 0,14.777 1.035,27.042 3.251,36.794 5.024,-13.89 9.014,-25.12 12.265,-33.395 l 6.797,-17.436 c 0.296,-1.182 1.034,-2.068 2.069,-2.808 1.034,-0.59 2.216,-1.034 3.399,-1.034 1.181,0 2.364,0.444 3.398,1.034 0.887,0.74 1.626,1.774 2.069,2.808 l 7.388,20.391 c 2.955,7.832 6.798,18.176 11.821,31.179 0.444,-2.364 0.738,-4.876 1.035,-7.536 0.295,-5.023 0.59,-15.515 0.59,-31.03 0,-9.162 -1.329,-19.653 -3.989,-31.623 v 0.149 c -1.034,-4.137 -2.956,-10.935 -5.468,-20.096 -0.442,-1.478 -0.295,-3.105 0.444,-4.434 0.887,-1.477 2.068,-2.364 3.547,-2.807 1.625,-0.445 3.103,-0.296 4.579,0.443 1.331,0.887 2.365,2.069 2.808,3.546 2.66,9.457 4.581,16.255 5.616,20.539 v 0.148 c 2.807,12.708 4.284,24.085 4.284,33.987 v 0.148 c 0,16.106 -0.294,26.893 -0.738,32.065 -0.886,11.378 -3.399,20.391 -7.24,26.745 -0.886,1.33 -1.922,2.216 -3.399,2.66 -1.477,0.591 -2.955,0.443 -4.285,-0.296 -1.478,-0.59 -2.365,-1.773 -2.955,-3.102 -7.832,-20.393 -13.743,-35.908 -17.732,-46.694 l -1.921,-5.468 -1.182,2.955 v -0.148 C 20.835,-41.522 14.924,-25.268 7.388,-3.694 6.945,-2.068 5.91,-1.035 4.433,-0.296 3.103,0.443 1.625,0.591 0,0" /></g></g></g></g></svg>
