<?xml version="1.0" encoding="UTF-8"?>
<svg id="Capa_1" data-name="Capa 1" xmlns="http://www.w3.org/2000/svg" viewBox="0 0 749.45 309.77">
  <defs>
    <style>
      .cls-1 {
        fill: #002647;
      }

      .cls-1, .cls-2, .cls-3, .cls-4, .cls-5 {
        fill-rule: evenodd;
      }

      .cls-1, .cls-2, .cls-3, .cls-4, .cls-5, .cls-6, .cls-7, .cls-8 {
        stroke-width: 0px;
      }

      .cls-2 {
        fill: #1961ac;
      }

      .cls-3, .cls-8 {
        fill: #bdbcbc;
      }

      .cls-4 {
        fill: #d0d0d0;
      }

      .cls-5 {
        fill: #fff;
      }

      .cls-6 {
        fill: #95c122;
      }

      .cls-7 {
        fill: #575756;
      }
    </style>
  </defs>
  <g>
    <path class="cls-5" d="M293.74,124.06h-104.04l-32.67-100.32-32.6,100.32H20.4l84.08,61.36-32.7,100.61,85.29-62.34,85.29,62.34-32.84-101.05,84.23-60.93Z"/>
    <path class="cls-1" d="M271.58,177.85v58.3h13.69v-33.45c0-4.63.91-8.12,2.79-10.46,1.85-2.35,5.2-3.54,10.04-3.54s7.41.91,8.4,2.73c.99,1.82,1.56,4.71,1.71,8.67v36.05h14.05v-33.81c0-5.47.99-9.03,3.02-10.73,2.03-1.69,4.28-2.63,6.71-2.78.58-.08,1.18-.13,1.77-.13h1.65c4.63,0,7.52.99,8.66,2.91,1.14,1.96,1.71,4.9,1.71,8.85v35.69h14.05s0-38.57,0-38.57c0-7.14-1.61-12.29-4.79-15.47-3.2-3.17-8.41-4.76-15.58-4.76-4.06,0-7.73.71-10.96,2.06-3.23,1.35-5.68,4.06-7.31,8.07l-.39.1c-.83-3.75-2.7-6.33-5.65-7.73-2.94-1.41-6.06-2.18-9.37-2.37-.52-.08-1.02-.14-1.51-.14h-1.49c-3.9,0-7.33.63-10.27,1.85-2.94,1.24-5.44,3.6-7.5,7.03l-.13-8.38h-13.33ZM430.49,177.85v58.31h13.69v-33.45c0-4.63.91-8.12,2.78-10.46,1.86-2.35,5.21-3.54,10.05-3.54s7.42.91,8.41,2.73c.98,1.82,1.56,4.71,1.72,8.67v36.05h14.05v-33.82c0-5.47.99-9.03,3.02-10.73,2.03-1.69,4.26-2.63,6.71-2.78.57-.08,1.17-.13,1.77-.13h1.64c4.64,0,7.52.99,8.67,2.91,1.15,1.96,1.71,4.9,1.71,8.85v35.69h14.05v-38.57c0-7.14-1.61-12.29-4.79-15.47-3.2-3.17-8.4-4.76-15.58-4.76-4.07,0-7.73.71-10.96,2.06-3.23,1.35-5.68,4.06-7.31,8.07l-.39.1c-.84-3.75-2.7-6.33-5.64-7.73-2.94-1.41-6.07-2.19-9.37-2.37-.52-.08-1.02-.14-1.51-.14h-1.48c-3.91,0-7.34.63-10.28,1.85-2.94,1.24-5.45,3.6-7.5,7.03l-.12-8.38h-13.33ZM382.27,217.78v-1.3c.07-.93.26-1.09.55-1.92.29-.83.78-1.53,1.46-2.15.8-.68,1.74-1.18,2.84-1.48,1.08-.31,2.15-.49,3.25-.6.66-.08,1.3-.14,1.98-.14h4.32c.85,0,1.74.06,2.67.14,1.26.18,2.47.44,3.68.78,1.19.36,2.21.88,3.05,1.56.57.52.98,1.2,1.25,1.98.23.78.39.8.5,1.58.07.36.12.72.12,1.11v1.09c0,3.75-1.22,6.17-3.62,7.26-2.42,1.1-5.08,1.72-7.96,1.88h-2.49c-3.83,0-6.72-.5-8.67-1.48-1.94-.98-2.9-3.75-2.91-8.3ZM384.56,196.18v-1.95c.08-.63.15-1.3.23-2.01.08-.68.27-1.3.53-1.88.57-1.08,1.38-1.89,2.47-2.41,1.07-.52,2.21-.86,3.46-1.07.73-.07,1.46-.13,2.16-.13h1.95c4.68,0,7.94.81,9.71,2.37,1.77,1.59,2.68,4.89,2.68,9.89l-.08,2.86h-16.84v.03h-.8c-6.72,0-11.98,1.22-15.82,3.65-3.86,2.45-5.75,7.31-5.75,14.6,0,6.89,1.97,10.66,5.93,12.85,3.95,2.18,8.82,3.13,14.96,3.13h31.94v-43.91c-.93-5.78-3.3-9.49-7.12-11.12-5.04-2.13-11.53-3.23-19.44-3.23-6.79,0-12.51.89-17.17,2.65-4.68,1.77-7,6.98-7,15.67h14Z"/>
    <path class="cls-2" d="M541.94,177.85h-13.69v58.31h13.69v-58.31ZM551.84,177.85v58.31h13.69v-34.39c0-4.42,1.17-7.73,3.55-9.86,2.37-2.14,5.67-3.21,9.94-3.21,4.74,0,7.7.94,8.93,2.79,1.22,1.85,1.85,4.9,1.85,9.16v35.51h13.69v-39.7c0-7.31-1.66-12.36-5-15.15-3.33-2.79-8.46-4.19-15.41-4.19-4.26,0-7.81.73-10.59,2.16-2.79,1.46-5.28,3.93-7.49,7.44l-.1-8.87h-13.04ZM640.37,177.85h-14.05v-5.26c0-2.86.45-4.97,1.35-6.3.88-1.3,2.15-2.08,5.28-2.34.41-.06,6.38.05,7.06.12v-9.55h-.71c-.21,0-.39-.03-.54-.13h-1.35c-1.33,0-2.76.03-4.27.08-1.5.05-3.03.12-4.6.29-2.55.25-5.05.8-7.47,1.66-2.41.89-4.37,2.29-5.85,4.26-.74.89-1.31,1.95-1.72,3.15-.42,1.22-.69,2.48-.76,3.72-.08.81-.12,1.61-.18,2.42-.05.84-.05,1.56-.05,2.22v63.95h13.81v-48.08h14.05v-10.23ZM662.89,206.22v-2.36c0-.76.03-1.54.13-2.34,0-.74.03-1.47.13-2.25l.23-2.36c0-.24,0-.48.06-.73.05-.24.11-.47.21-.73.25-.88.57-1.77.96-2.64.36-.89.93-1.65,1.68-2.3.68-.63,1.54-1.1,2.61-1.38,1.04-.29,2.13-.45,3.23-.45.41-.05.86-.09,1.32-.09s.92-.03,1.36-.13h4.79c.42,0,.88.05,1.41.13,1.17,0,2.28.18,3.36.5,1.04.3,1.95.82,2.73,1.56.93.9,1.58,2.13,1.95,3.66.36,1.53.65,3.15.83,4.85.08.99.13,1.92.13,2.76v9.37c0,.85-.06,1.69-.13,2.47-.11,1.79-.31,3.51-.65,5.12-.34,1.62-.91,3-1.74,4.14-.78.99-1.77,1.66-3,2.08-1.22.42-2.46.68-3.72.83-.78.09-1.51.1-2.24.1s-1.38-.02-1.95-.1h-1.64c-6,0-9.52-1.45-10.54-4.4-1.02-2.94-1.51-6.78-1.51-11.55v-3.75ZM648.84,204.55v5.63c0,10.91,2.3,17.97,6.87,21.16,4.58,3.23,12.02,4.82,22.35,4.82,12.38,0,19.77-2.65,22.17-7.99,2.37-5.31,3.56-13.03,3.56-23.12,0-11.14-1.97-18.45-5.87-21.94-3.9-3.49-11.41-5.25-22.48-5.25s-17.64,1.92-21.24,5.75c-3.59,3.82-5.36,10.8-5.36,20.95Z"/>
    <polygon class="cls-3" points="231.47 271.28 156.76 216.67 82.05 271.28 110.69 183.14 141.13 172.9 131.36 202.96 156.76 184.25 182.04 202.85 231.47 271.28"/>
    <polygon class="cls-4" points="231.47 271.28 182.04 202.85 172.38 172.87 197.47 154.73 166.48 154.73 185.35 129.39 276.48 129.39 202.7 182.76 231.47 271.28"/>
    <polygon class="cls-2" points="128.17 129.39 156.73 41.52 185.35 129.39 166.48 154.73 156.73 124.91 147.04 154.73 128.17 129.39"/>
    <polygon class="cls-1" points="110.69 183.14 37.04 129.39 128.17 129.39 147.04 154.73 116.05 154.73 141.13 172.9 110.69 183.14"/>
    <path class="cls-8" d="M729.06,162.44c0,8.75-6.87,15.62-15.81,15.62s-15.9-6.87-15.9-15.62,7.06-15.43,15.9-15.43,15.81,6.87,15.81,15.43ZM701.3,162.44c0,6.87,5.08,12.33,12.04,12.33s11.76-5.46,11.76-12.23-4.99-12.42-11.85-12.42-11.95,5.55-11.95,12.32ZM710.81,170.54h-3.57v-15.43c1.41-.28,3.39-.47,5.93-.47,2.92,0,4.23.47,5.36,1.13.85.66,1.51,1.88,1.51,3.39,0,1.69-1.32,3.01-3.2,3.58v.19c1.51.57,2.35,1.69,2.82,3.76.47,2.35.75,3.29,1.13,3.86h-3.86c-.47-.57-.75-1.98-1.22-3.76-.28-1.69-1.22-2.45-3.2-2.45h-1.69v6.21ZM710.9,161.79h1.69c1.98,0,3.57-.66,3.57-2.26,0-1.41-1.03-2.35-3.29-2.35-.94,0-1.6.09-1.98.19v4.42Z"/>
  </g>
  <g>
    <g>
      <path class="cls-7" d="M430.8,269.83c0,.66-.22,1.19-.65,1.59-.43.4-1.01.6-1.72.6h-14.23c.27,1.28.77,2.27,1.52,2.95.96,1.1,2.35,1.77,4.18,1.99,1.84.22,3.42-.14,4.76-1.1.45-.48,1.04-.72,1.79-.72s1.27.19,1.57.58c.83.92.83,1.89,0,2.91-2.15,1.97-4.78,2.95-7.9,2.93-3.12-.01-5.73-1.11-7.83-3.29-2.1-2.18-3.17-4.8-3.2-7.88.03-3.07,1.1-5.7,3.2-7.9,2.1-2.19,4.64-3.29,7.63-3.29s5.5.98,7.54,2.93c2.04,1.95,3.16,4.44,3.33,7.45v.22h0ZM420.02,263.48c-1.73.09-3.12.63-4.16,1.61-1.04.98-1.67,2.03-1.88,3.13h12.66c-.27-1.04-.99-2.06-2.17-3.04-1.18-.98-2.66-1.55-4.45-1.7"/>
      <path class="cls-7" d="M442.53,281.42c-.51-.24-.8-.44-.87-.6-.07-.16-.13-.26-.16-.29-.09-.03-.17-.15-.22-.36l-7.25-17.36c-.27-.6-.28-1.19-.02-1.77.25-.58.69-1.01,1.32-1.27.54-.27,1.1-.27,1.7,0,.6.27,1.03.7,1.3,1.3l5.15,12.17,5.19-12.17c.24-.6.65-1.03,1.23-1.3.58-.27,1.18-.27,1.79,0,.61.27,1.04.69,1.3,1.27.25.58.25,1.17-.02,1.77l-7.34,17.36c-.06.15-.12.25-.18.31-.06.06-.12.13-.18.2-.06.07-.16.17-.29.29-.13.12-.23.22-.29.29-.06.07-.13.13-.22.16h-.09v.04c-.12,0-.24.03-.36.09h-.09c-.12.03-.26.04-.42.04s-.31-.02-.42-.04h-.09c-.18-.06-.3-.09-.36-.09v-.04h-.09Z"/>
      <path class="cls-7" d="M478.81,269.83c0,.66-.22,1.19-.65,1.59-.43.4-1.01.6-1.72.6h-14.23c.27,1.28.77,2.27,1.52,2.95.95,1.1,2.35,1.77,4.18,1.99,1.83.22,3.42-.14,4.76-1.1.45-.48,1.04-.72,1.79-.72s1.27.19,1.57.58c.83.92.83,1.89,0,2.91-2.15,1.97-4.78,2.95-7.9,2.93-3.12-.01-5.73-1.11-7.83-3.29-2.1-2.18-3.17-4.8-3.2-7.88.03-3.07,1.1-5.7,3.2-7.9,2.1-2.19,4.65-3.29,7.63-3.29s5.5.98,7.54,2.93c2.04,1.95,3.15,4.44,3.33,7.45v.22h0ZM468.03,263.48c-1.73.09-3.12.63-4.16,1.61-1.04.98-1.67,2.03-1.88,3.13h12.66c-.27-1.04-.99-2.06-2.17-3.04-1.18-.98-2.66-1.55-4.45-1.7"/>
      <path class="cls-7" d="M488.12,261.91c.69-.81,1.63-1.46,2.82-1.95,1.19-.49,2.28-.73,3.27-.71.98.02,1.71.25,2.17.69.46.45.69.99.69,1.63s-.23,1.2-.69,1.68c-.46.48-1.02.72-1.68.72-2.78,0-4.97,2.25-6.58,6.76v8.5c0,.66-.24,1.22-.72,1.68-.48.46-1.05.69-1.72.69s-1.24-.23-1.7-.69c-.46-.46-.69-1.02-.69-1.68v-17.63c0-.65.23-1.21.69-1.65.46-.45,1.03-.67,1.7-.67s1.25.22,1.72.67c.48.45.72,1,.72,1.65v.31h0Z"/>
      <path class="cls-7" d="M505.12,279.23c0,.66-.25,1.22-.76,1.68-.51.46-1.08.69-1.72.69s-1.19-.23-1.65-.69c-.46-.46-.69-1.02-.69-1.68v-17.63c0-.65.23-1.22.69-1.68.46-.46,1.02-.69,1.68-.69,1.01,0,1.74.46,2.19,1.39,1.46-.92,3.04-1.39,4.74-1.39,2.6,0,4.8.92,6.62,2.75,1.82,1.83,2.73,4.02,2.73,6.56v10.69c0,.66-.22,1.22-.67,1.68-.45.46-.99.69-1.63.69s-1.2-.23-1.68-.69c-.48-.46-.71-1.02-.71-1.68v-10.69c0-1.25-.46-2.32-1.36-3.2-.91-.88-2-1.32-3.27-1.32s-2.33.44-3.2,1.32c-.86.88-1.3,1.95-1.3,3.2v10.69h0Z"/>
      <path class="cls-7" d="M545.21,269.83c0,.66-.22,1.19-.65,1.59-.43.4-1.01.6-1.72.6h-14.23c.27,1.28.77,2.27,1.52,2.95.95,1.1,2.35,1.77,4.18,1.99,1.84.22,3.42-.14,4.76-1.1.45-.48,1.04-.72,1.79-.72s1.27.19,1.57.58c.83.92.83,1.89,0,2.91-2.15,1.97-4.78,2.95-7.9,2.93-3.12-.01-5.73-1.11-7.83-3.29-2.1-2.18-3.17-4.8-3.2-7.88.03-3.07,1.1-5.7,3.2-7.9,2.1-2.19,4.65-3.29,7.63-3.29s5.5.98,7.54,2.93c2.04,1.95,3.15,4.44,3.33,7.45v.22h0ZM534.43,263.48c-1.73.09-3.12.63-4.16,1.61-1.04.98-1.67,2.03-1.88,3.13h12.66c-.27-1.04-.99-2.06-2.17-3.04-1.18-.98-2.66-1.55-4.45-1.7"/>
      <path class="cls-7" d="M568.92,268.24c-.5,0-1-.19-1.38-.58-.74-.76-.73-1.98.04-2.72l2.61-2.55s.02-.02.03-.03l.29-.27s.02-.02.03-.03c2.08-1.86,4.78-2.88,7.6-2.88,1,0,1.99.13,2.95.38,1.03.27,1.64,1.33,1.37,2.35-.27,1.03-1.33,1.64-2.35,1.37-.64-.17-1.3-.25-1.97-.25-1.86,0-3.65.67-5.02,1.89l-.26.24-2.59,2.53c-.37.37-.86.55-1.34.55"/>
      <path class="cls-6" d="M582.46,278.67c-.27-1.03-1.33-1.64-2.35-1.37-.64.17-1.3.25-1.97.25-1.86,0-3.64-.67-5.02-1.89l-4.24-4.23-5.25-5.24-3.96-3.95s-.08-.08-.12-.12c-2.1-1.9-4.82-2.95-7.67-2.95-1.01,0-2.02.13-2.99.39-1.03.28-1.64,1.33-1.36,2.36.28,1.03,1.33,1.64,2.36,1.36.64-.17,1.31-.26,1.99-.26,1.87,0,3.66.67,5.03,1.9l4,3.99,5.25,5.24,4.28,4.26s.05.05.08.07c2.09,1.87,4.79,2.9,7.62,2.9,1,0,1.99-.13,2.95-.38,1.03-.27,1.64-1.33,1.37-2.35"/>
      <path class="cls-7" d="M551.92,281.4c-1.03,0-2.05-.14-3.04-.41-1.02-.28-1.63-1.34-1.35-2.36.28-1.03,1.34-1.63,2.36-1.35.66.18,1.33.27,2.02.27,1.86,0,3.65-.67,5.03-1.89l.26-.24,2.6-2.53c.76-.74,1.98-.73,2.72.04.74.76.73,1.98-.04,2.72l-2.61,2.54s-.02.02-.03.03l-.29.27s-.02.02-.03.03c-2.08,1.86-4.78,2.88-7.6,2.88"/>
    </g>
    <g>
      <path class="cls-7" d="M369.25,270.45c.57-1.11,1.35-1.96,2.33-2.56.98-.6,2.08-.9,3.29-.9,1.06,0,1.98.21,2.78.64.79.43,1.43.96,1.91,1.61v-2.02h3.61v14.18h-3.61v-2.07c-.46.67-1.1,1.22-1.91,1.65-.81.44-1.74.65-2.8.65-1.19,0-2.28-.31-3.26-.92-.98-.61-1.76-1.48-2.33-2.6s-.86-2.4-.86-3.85.29-2.7.86-3.81ZM379.04,272.07c-.34-.62-.8-1.1-1.38-1.43-.58-.33-1.2-.5-1.87-.5s-1.28.16-1.84.49c-.56.32-1.02.8-1.37,1.42s-.52,1.36-.52,2.21.17,1.6.52,2.24.81,1.13,1.38,1.47c.57.34,1.18.51,1.83.51s1.29-.17,1.87-.5c.58-.33,1.04-.81,1.38-1.43.34-.62.51-1.37.51-2.24s-.17-1.62-.51-2.24Z"/>
      <path class="cls-7" d="M398.62,268.62c1.04,1.07,1.56,2.56,1.56,4.47v8.32h-3.58v-7.83c0-1.13-.28-1.99-.84-2.6-.56-.61-1.33-.91-2.3-.91s-1.77.3-2.34.91-.86,1.47-.86,2.6v7.83h-3.58v-14.18h3.58v1.77c.48-.61,1.09-1.1,1.83-1.45.74-.35,1.56-.52,2.44-.52,1.69,0,3.05.53,4.09,1.6Z"/>
    </g>
    <g>
      <path class="cls-7" d="M593.61,271.86c.53-.98,1.27-1.74,2.21-2.28s2.02-.81,3.24-.81c1.56,0,2.86.39,3.88,1.17,1.03.78,1.71,1.88,2.06,3.29h-3.44c-.18-.55-.49-.98-.92-1.29-.43-.31-.97-.47-1.61-.47-.91,0-1.63.33-2.16.99-.53.66-.8,1.6-.8,2.81s.27,2.13.8,2.79c.53.66,1.25.99,2.16.99,1.29,0,2.13-.58,2.53-1.73h3.44c-.35,1.37-1.04,2.45-2.07,3.26-1.03.81-2.32,1.21-3.87,1.21-1.22,0-2.29-.27-3.24-.81s-1.68-1.3-2.21-2.28c-.53-.98-.8-2.12-.8-3.43s.27-2.45.8-3.43Z"/>
      <path class="cls-7" d="M609.67,281c-.97-.54-1.74-1.3-2.29-2.29-.56-.99-.83-2.13-.83-3.42s.28-2.43.85-3.42c.57-.99,1.35-1.75,2.34-2.29.99-.54,2.09-.81,3.3-.81s2.32.27,3.3.81c.99.54,1.77,1.3,2.34,2.29.57.99.85,2.13.85,3.42s-.29,2.43-.88,3.42c-.59.99-1.37,1.75-2.37,2.29s-2.11.81-3.34.81-2.31-.27-3.28-.81ZM614.58,278.6c.51-.28.92-.7,1.22-1.26.3-.56.46-1.25.46-2.05,0-1.2-.32-2.12-.95-2.77-.63-.65-1.4-.97-2.31-.97s-1.67.32-2.29.97-.92,1.57-.92,2.77.3,2.12.9,2.77c.6.65,1.36.97,2.27.97.58,0,1.12-.14,1.63-.42Z"/>
      <path class="cls-7" d="M641.31,270.22c.95.95,1.42,2.27,1.42,3.98v7.41h-3.19v-6.97c0-.99-.25-1.74-.75-2.27-.5-.52-1.19-.79-2.05-.79s-1.55.26-2.06.79c-.51.52-.76,1.28-.76,2.27v6.97h-3.19v-6.97c0-.99-.25-1.74-.75-2.27-.5-.52-1.19-.79-2.05-.79s-1.58.26-2.09.79c-.51.52-.76,1.28-.76,2.27v6.97h-3.19v-12.62h3.19v1.53c.41-.53.94-.95,1.58-1.25.65-.3,1.36-.46,2.13-.46.99,0,1.87.21,2.64.63.78.42,1.37,1.01,1.8,1.79.41-.73,1.01-1.31,1.79-1.75.78-.44,1.63-.66,2.54-.66,1.55,0,2.8.48,3.75,1.42Z"/>
      <path class="cls-7" d="M650.65,269.35c.72-.39,1.55-.58,2.47-.58,1.08,0,2.05.27,2.93.8.87.53,1.56,1.29,2.07,2.27.51.98.76,2.12.76,3.41s-.26,2.44-.76,3.43c-.51,1-1.2,1.77-2.07,2.31-.87.55-1.85.82-2.93.82-.93,0-1.74-.19-2.45-.57-.71-.38-1.28-.86-1.72-1.44v7.82h-3.19v-18.64h3.19v1.82c.41-.58.98-1.06,1.7-1.45ZM655.16,273.27c-.31-.55-.72-.98-1.23-1.26-.51-.29-1.06-.43-1.65-.43s-1.12.15-1.63.44c-.51.3-.92.73-1.23,1.29-.31.56-.47,1.22-.47,1.98s.15,1.42.47,1.98.72.99,1.23,1.29c.51.3,1.05.44,1.63.44s1.14-.15,1.65-.46c.51-.3.92-.74,1.23-1.3s.47-1.23.47-2.01-.16-1.42-.47-1.97Z"/>
      <path class="cls-7" d="M661.15,271.85c.51-.99,1.2-1.75,2.07-2.28s1.85-.8,2.93-.8c.94,0,1.77.19,2.47.57.71.38,1.27.86,1.7,1.44v-1.8h3.21v12.62h-3.21v-1.85c-.41.59-.98,1.08-1.7,1.47s-1.55.58-2.49.58c-1.06,0-2.03-.27-2.91-.82-.87-.55-1.56-1.32-2.07-2.31-.51-.99-.76-2.14-.76-3.43s.25-2.41.76-3.39ZM669.87,273.29c-.3-.56-.71-.98-1.23-1.28-.52-.3-1.07-.44-1.66-.44s-1.14.15-1.64.43-.91.71-1.22,1.26c-.31.56-.47,1.21-.47,1.97s.16,1.42.47,1.99.72,1.01,1.23,1.31c.51.3,1.05.46,1.63.46s1.15-.15,1.66-.44c.52-.3.93-.72,1.23-1.28.3-.56.46-1.22.46-1.99s-.15-1.44-.46-1.99Z"/>
      <path class="cls-7" d="M687.3,270.22c.93.95,1.39,2.27,1.39,3.98v7.41h-3.19v-6.97c0-1-.25-1.77-.75-2.31-.5-.54-1.19-.81-2.05-.81s-1.58.27-2.09.81c-.51.54-.76,1.31-.76,2.31v6.97h-3.19v-12.62h3.19v1.57c.42-.55.97-.98,1.63-1.29.66-.31,1.39-.47,2.18-.47,1.5,0,2.72.48,3.65,1.42Z"/>
      <path class="cls-7" d="M703.8,268.98l-7.82,18.59h-3.39l2.73-6.29-5.06-12.3h3.58l3.26,8.82,3.3-8.82h3.39Z"/>
    </g>
  </g>
</svg>
