<?xml version="1.0" encoding="UTF-8"?>
<svg id="Capa_1" data-name="Capa 1" xmlns="http://www.w3.org/2000/svg" viewBox="0 0 749.45 309.77">
  <defs>
    <style>
      .cls-1 {
        fill-rule: evenodd;
      }

      .cls-1, .cls-2, .cls-3 {
        stroke-width: 0px;
      }

      .cls-1, .cls-3 {
        fill: #fff;
      }

      .cls-2 {
        fill: #95c122;
      }
    </style>
  </defs>
  <g>
    <path class="cls-1" d="M498.13,177.11c-4.07,0-7.74.7-10.97,2.06-3.24,1.35-5.68,4.07-7.33,8.08l-.38.11c-.84-3.76-2.71-6.34-5.65-7.74-2.94-1.41-6.07-2.19-9.38-2.37-.52-.07-1.02-.13-1.51-.13h-1.49c-3.91,0-7.34.63-10.28,1.85-2.95,1.25-5.45,3.6-7.51,7.03l-.13-8.39h-13.34v58.37h13.71v-33.49c0-4.63.92-8.13,2.77-10.47,1.87-2.35,5.21-3.54,10.06-3.54s7.43.91,8.41,2.73c.98,1.83,1.56,4.72,1.72,8.68v36.09h14.07v-33.86c0-5.46.99-9.04,3.02-10.74,2.03-1.69,4.27-2.63,6.72-2.78.57-.08,1.18-.13,1.77-.13h1.64c4.64,0,7.52.99,8.68,2.91,1.15,1.97,1.72,4.91,1.72,8.87v35.73h14.07v-38.62c0-7.15-1.61-12.3-4.8-15.48-3.2-3.18-8.41-4.76-15.6-4.76Z"/>
    <path class="cls-1" d="M339.05,177.11c-4.06,0-7.73.7-10.97,2.06-3.23,1.35-5.68,4.07-7.32,8.08l-.39.11c-.83-3.76-2.71-6.34-5.65-7.74-2.95-1.41-6.07-2.19-9.37-2.37-.53-.07-1.02-.13-1.52-.13h-1.49c-3.91,0-7.34.63-10.28,1.85-2.94,1.25-5.45,3.6-7.51,7.03l-.12-8.39h-13.34v58.37h13.7v-33.49c0-4.63.92-8.13,2.79-10.47,1.85-2.35,5.21-3.54,10.06-3.54s7.42.91,8.42,2.73c.99,1.83,1.56,4.72,1.71,8.68v36.09h14.07v-33.86c0-5.46,1-9.04,3.03-10.74,2.03-1.69,4.28-2.63,6.71-2.78.58-.08,1.19-.13,1.78-.13h1.64c4.63,0,7.53.99,8.68,2.91,1.14,1.97,1.71,4.91,1.71,8.87v35.73h14.06v-38.62c0-7.15-1.6-12.3-4.79-15.48-3.21-3.18-8.42-4.76-15.61-4.76Z"/>
    <path class="cls-1" d="M413.83,180.83c-5.06-2.13-11.55-3.23-19.47-3.23-6.79,0-12.52.88-17.19,2.65-4.69,1.78-7,6.99-7,15.69h14.02v-1.96c.08-.62.16-1.3.23-2.01.08-.68.27-1.3.53-1.88.56-1.09,1.37-1.9,2.47-2.41,1.06-.52,2.21-.86,3.46-1.07.74-.07,1.46-.13,2.16-.13h1.95c4.69,0,7.95.81,9.72,2.37,1.77,1.59,2.67,4.9,2.67,9.91l-.07,2.86h-16.86v.03h-.8c-6.73,0-11.99,1.23-15.84,3.65-3.86,2.46-5.76,7.33-5.76,14.62,0,6.9,1.98,10.67,5.94,12.87,3.95,2.18,8.83,3.13,14.98,3.13h31.98v-43.96c-.94-5.79-3.31-9.5-7.13-11.13ZM407.57,218.22c0,3.76-1.22,6.18-3.62,7.27-2.42,1.1-5.07,1.73-7.97,1.89h-2.5c-3.83,0-6.73-.5-8.68-1.49-1.94-.99-2.9-3.76-2.92-8.32v-1.3c.08-.94.26-1.09.56-1.93.28-.83.78-1.54,1.46-2.15.8-.69,1.74-1.19,2.84-1.49,1.08-.32,2.16-.5,3.25-.6.65-.07,1.3-.13,1.98-.13h4.33c.86,0,1.75.06,2.68.13,1.26.18,2.48.44,3.67.78,1.21.36,2.22.88,3.05,1.56.57.53.99,1.21,1.25,1.99.23.78.4.8.5,1.58.07.37.13.72.13,1.11v1.1Z"/>
    <rect class="cls-3" x="528.04" y="177.6" width="13.7" height="58.37"/>
    <path class="cls-1" d="M598.34,181.07c-3.34-2.79-8.47-4.2-15.43-4.2-4.26,0-7.81.74-10.6,2.16-2.79,1.47-5.29,3.93-7.49,7.45l-.1-8.88h-13.06v58.37h13.7v-34.43c0-4.43,1.17-7.73,3.55-9.87,2.38-2.15,5.68-3.21,9.95-3.21,4.74,0,7.71.94,8.94,2.79,1.22,1.85,1.85,4.9,1.85,9.17v35.55h13.7v-39.75c0-7.32-1.68-12.37-5.01-15.16Z"/>
    <path class="cls-1" d="M626.2,172.34c0-2.86.45-4.98,1.36-6.29.88-1.31,2.15-2.1,5.29-2.36.41-.05,6.39.05,7.06.13v-9.56h-.71c-.21,0-.38-.03-.54-.14h-1.35c-1.33,0-2.76.03-4.27.08-1.51.05-3.04.12-4.61.29-2.55.25-5.06.8-7.48,1.66-2.42.88-4.37,2.29-5.86,4.27-.73.88-1.3,1.95-1.72,3.15-.41,1.23-.69,2.48-.76,3.73-.07.81-.12,1.61-.18,2.42-.05.84-.05,1.56-.05,2.22v64.02h13.82v-48.14h14.07v-10.24h-14.07v-5.26Z"/>
    <path class="cls-1" d="M697.89,182.86c-3.91-3.49-11.42-5.26-22.51-5.26s-17.66,1.93-21.26,5.76c-3.6,3.83-5.37,10.81-5.37,20.97v5.63c0,10.92,2.3,17.98,6.88,21.18,4.59,3.24,12.04,4.83,22.38,4.83,12.4,0,19.79-2.66,22.19-8,2.37-5.32,3.57-13.04,3.57-23.15,0-11.15-1.98-18.47-5.89-21.97ZM689.97,204.04v7.02c0,.86-.05,1.7-.13,2.48-.11,1.79-.32,3.52-.65,5.12-.34,1.62-.92,3.01-1.74,4.15-.78.99-1.78,1.67-3,2.08-1.22.43-2.47.68-3.72.83-.78.08-1.51.1-2.24.1s-1.39-.02-1.96-.1h-1.64c-6.02,0-9.53-1.46-10.55-4.4-1.02-2.94-1.52-6.79-1.52-11.57v-6.12c0-.76.03-1.54.14-2.34,0-.74.02-1.47.13-2.25l.23-2.36c0-.24,0-.47.05-.73.05-.24.1-.47.21-.74.26-.89.57-1.77.97-2.65.36-.89.93-1.66,1.69-2.3.69-.63,1.54-1.09,2.61-1.38,1.04-.28,2.13-.45,3.22-.45.42-.04.86-.09,1.33-.09s.91-.03,1.35-.14h4.79c.43,0,.89.05,1.42.14,1.17,0,2.29.18,3.36.5,1.04.3,1.96.82,2.74,1.56.93.91,1.58,2.14,1.96,3.67.36,1.54.64,3.16.83,4.86.08.99.13,1.92.13,2.76v2.36Z"/>
    <path class="cls-1" d="M713.24,146.68c-8.85,0-15.91,6.87-15.91,15.44s7.06,15.63,15.91,15.63,15.82-6.87,15.82-15.63-6.87-15.44-15.82-15.44ZM713.33,174.46c-6.97,0-12.05-5.46-12.05-12.34s5.09-12.33,11.96-12.33,11.86,5.56,11.86,12.43-4.99,12.24-11.77,12.24Z"/>
    <path class="cls-1" d="M716.82,162.59v-.19c1.88-.57,3.2-1.88,3.2-3.58,0-1.51-.66-2.73-1.51-3.39-1.13-.66-2.45-1.13-5.37-1.13-2.54,0-4.52.19-5.93.47v15.44h3.58v-6.21h1.7c1.98,0,2.92.75,3.2,2.45.47,1.79.75,3.2,1.22,3.77h3.86c-.38-.57-.66-1.51-1.13-3.86-.47-2.07-1.32-3.2-2.83-3.77ZM712.58,161.46h-1.7v-4.42c.38-.09,1.04-.19,1.98-.19,2.26,0,3.3.94,3.3,2.35,0,1.6-1.6,2.26-3.58,2.26Z"/>
    <polygon class="cls-1" points="139.97 174.66 130.82 203.06 156.13 184.44 181.55 203.18 171.78 173.09 196.88 154.89 167.25 154.89 187.82 129.53 275.98 129.53 202.25 183.34 230.92 271.57 156.13 216.9 81.34 271.57 108.07 189.3 139.97 174.66"/>
    <polygon class="cls-1" points="156.16 125.04 146.4 154.89 115.38 154.89 136.53 170.19 109.59 182.56 36.28 129.53 127.51 129.53 156.16 41.55 183.6 126 164.23 149.88 156.16 125.04"/>
  </g>
  <g>
    <g>
      <path class="cls-3" d="M430.8,269.83c0,.66-.22,1.19-.65,1.59-.43.4-1.01.6-1.72.6h-14.23c.27,1.28.77,2.27,1.52,2.95.96,1.1,2.35,1.77,4.18,1.99,1.84.22,3.42-.14,4.76-1.1.45-.48,1.04-.72,1.79-.72s1.27.19,1.57.58c.83.92.83,1.89,0,2.91-2.15,1.97-4.78,2.95-7.9,2.93-3.12-.01-5.73-1.11-7.83-3.29-2.1-2.18-3.17-4.8-3.2-7.88.03-3.07,1.1-5.7,3.2-7.9,2.1-2.19,4.64-3.29,7.63-3.29s5.5.98,7.54,2.93c2.04,1.95,3.16,4.44,3.33,7.45v.22h0ZM420.02,263.48c-1.73.09-3.12.63-4.16,1.61-1.04.98-1.67,2.03-1.88,3.13h12.66c-.27-1.04-.99-2.06-2.17-3.04-1.18-.98-2.66-1.55-4.45-1.7"/>
      <path class="cls-3" d="M442.53,281.42c-.51-.24-.8-.44-.87-.6-.07-.16-.13-.26-.16-.29-.09-.03-.17-.15-.22-.36l-7.25-17.36c-.27-.6-.28-1.19-.02-1.77.25-.58.69-1.01,1.32-1.27.54-.27,1.1-.27,1.7,0,.6.27,1.03.7,1.3,1.3l5.15,12.17,5.19-12.17c.24-.6.65-1.03,1.23-1.3.58-.27,1.18-.27,1.79,0,.61.27,1.04.69,1.3,1.27.25.58.25,1.17-.02,1.77l-7.34,17.36c-.06.15-.12.25-.18.31-.06.06-.12.13-.18.2-.06.07-.16.17-.29.29-.13.12-.23.22-.29.29-.06.07-.13.13-.22.16h-.09v.04c-.12,0-.24.03-.36.09h-.09c-.12.03-.26.04-.42.04s-.31-.02-.42-.04h-.09c-.18-.06-.3-.09-.36-.09v-.04h-.09Z"/>
      <path class="cls-3" d="M478.81,269.83c0,.66-.22,1.19-.65,1.59-.43.4-1.01.6-1.72.6h-14.23c.27,1.28.77,2.27,1.52,2.95.95,1.1,2.35,1.77,4.18,1.99,1.83.22,3.42-.14,4.76-1.1.45-.48,1.04-.72,1.79-.72s1.27.19,1.57.58c.83.92.83,1.89,0,2.91-2.15,1.97-4.78,2.95-7.9,2.93-3.12-.01-5.73-1.11-7.83-3.29-2.1-2.18-3.17-4.8-3.2-7.88.03-3.07,1.1-5.7,3.2-7.9,2.1-2.19,4.65-3.29,7.63-3.29s5.5.98,7.54,2.93c2.04,1.95,3.15,4.44,3.33,7.45v.22h0ZM468.03,263.48c-1.73.09-3.12.63-4.16,1.61-1.04.98-1.67,2.03-1.88,3.13h12.66c-.27-1.04-.99-2.06-2.17-3.04-1.18-.98-2.66-1.55-4.45-1.7"/>
      <path class="cls-3" d="M488.12,261.91c.69-.81,1.63-1.46,2.82-1.95,1.19-.49,2.28-.73,3.27-.71.98.02,1.71.25,2.17.69.46.45.69.99.69,1.63s-.23,1.2-.69,1.68c-.46.48-1.02.72-1.68.72-2.78,0-4.97,2.25-6.58,6.76v8.5c0,.66-.24,1.22-.72,1.68-.48.46-1.05.69-1.72.69s-1.24-.23-1.7-.69c-.46-.46-.69-1.02-.69-1.68v-17.63c0-.65.23-1.21.69-1.65.46-.45,1.03-.67,1.7-.67s1.25.22,1.72.67c.48.45.72,1,.72,1.65v.31h0Z"/>
      <path class="cls-3" d="M505.12,279.23c0,.66-.25,1.22-.76,1.68-.51.46-1.08.69-1.72.69s-1.19-.23-1.65-.69c-.46-.46-.69-1.02-.69-1.68v-17.63c0-.65.23-1.22.69-1.68.46-.46,1.02-.69,1.68-.69,1.01,0,1.74.46,2.19,1.39,1.46-.92,3.04-1.39,4.74-1.39,2.6,0,4.8.92,6.62,2.75,1.82,1.83,2.73,4.02,2.73,6.56v10.69c0,.66-.22,1.22-.67,1.68-.45.46-.99.69-1.63.69s-1.2-.23-1.68-.69c-.48-.46-.71-1.02-.71-1.68v-10.69c0-1.25-.46-2.32-1.36-3.2-.91-.88-2-1.32-3.27-1.32s-2.33.44-3.2,1.32c-.86.88-1.3,1.95-1.3,3.2v10.69h0Z"/>
      <path class="cls-3" d="M545.21,269.83c0,.66-.22,1.19-.65,1.59-.43.4-1.01.6-1.72.6h-14.23c.27,1.28.77,2.27,1.52,2.95.95,1.1,2.35,1.77,4.18,1.99,1.84.22,3.42-.14,4.76-1.1.45-.48,1.04-.72,1.79-.72s1.27.19,1.57.58c.83.92.83,1.89,0,2.91-2.15,1.97-4.78,2.95-7.9,2.93-3.12-.01-5.73-1.11-7.83-3.29-2.1-2.18-3.17-4.8-3.2-7.88.03-3.07,1.1-5.7,3.2-7.9,2.1-2.19,4.65-3.29,7.63-3.29s5.5.98,7.54,2.93c2.04,1.95,3.15,4.44,3.33,7.45v.22h0ZM534.43,263.48c-1.73.09-3.12.63-4.16,1.61-1.04.98-1.67,2.03-1.88,3.13h12.66c-.27-1.04-.99-2.06-2.17-3.04-1.18-.98-2.66-1.55-4.45-1.7"/>
      <path class="cls-3" d="M568.92,268.24c-.5,0-1-.19-1.38-.58-.74-.76-.73-1.98.04-2.72l2.61-2.55s.02-.02.03-.03l.29-.27s.02-.02.03-.03c2.08-1.86,4.78-2.88,7.6-2.88,1,0,1.99.13,2.95.38,1.03.27,1.64,1.33,1.37,2.35-.27,1.03-1.33,1.64-2.35,1.37-.64-.17-1.3-.25-1.97-.25-1.86,0-3.65.67-5.02,1.89l-.26.24-2.59,2.53c-.37.37-.86.55-1.34.55"/>
      <path class="cls-2" d="M582.46,278.67c-.27-1.03-1.33-1.64-2.35-1.37-.64.17-1.3.25-1.97.25-1.86,0-3.64-.67-5.02-1.89l-4.24-4.23-5.25-5.24-3.96-3.95s-.08-.08-.12-.12c-2.1-1.9-4.82-2.95-7.67-2.95-1.01,0-2.02.13-2.99.39-1.03.28-1.64,1.33-1.36,2.36.28,1.03,1.33,1.64,2.36,1.36.64-.17,1.31-.26,1.99-.26,1.87,0,3.66.67,5.03,1.9l4,3.99,5.25,5.24,4.28,4.26s.05.05.08.07c2.09,1.87,4.79,2.9,7.62,2.9,1,0,1.99-.13,2.95-.38,1.03-.27,1.64-1.33,1.37-2.35"/>
      <path class="cls-3" d="M551.92,281.4c-1.03,0-2.05-.14-3.04-.41-1.02-.28-1.63-1.34-1.35-2.36.28-1.03,1.34-1.63,2.36-1.35.66.18,1.33.27,2.02.27,1.86,0,3.65-.67,5.03-1.89l.26-.24,2.6-2.53c.76-.74,1.98-.73,2.72.04.74.76.73,1.98-.04,2.72l-2.61,2.54s-.02.02-.03.03l-.29.27s-.02.02-.03.03c-2.08,1.86-4.78,2.88-7.6,2.88"/>
    </g>
    <g>
      <path class="cls-3" d="M369.25,270.45c.57-1.11,1.35-1.96,2.33-2.56.98-.6,2.08-.9,3.29-.9,1.06,0,1.98.21,2.78.64.79.43,1.43.96,1.91,1.61v-2.02h3.61v14.18h-3.61v-2.07c-.46.67-1.1,1.22-1.91,1.65-.81.44-1.74.65-2.8.65-1.19,0-2.28-.31-3.26-.92-.98-.61-1.76-1.48-2.33-2.6s-.86-2.4-.86-3.85.29-2.7.86-3.81ZM379.04,272.07c-.34-.62-.8-1.1-1.38-1.43-.58-.33-1.2-.5-1.87-.5s-1.28.16-1.84.49c-.56.32-1.02.8-1.37,1.42s-.52,1.36-.52,2.21.17,1.6.52,2.24.81,1.13,1.38,1.47c.57.34,1.18.51,1.83.51s1.29-.17,1.87-.5c.58-.33,1.04-.81,1.38-1.43.34-.62.51-1.37.51-2.24s-.17-1.62-.51-2.24Z"/>
      <path class="cls-3" d="M398.62,268.62c1.04,1.07,1.56,2.56,1.56,4.47v8.32h-3.58v-7.83c0-1.13-.28-1.99-.84-2.6-.56-.61-1.33-.91-2.3-.91s-1.77.3-2.34.91-.86,1.47-.86,2.6v7.83h-3.58v-14.18h3.58v1.77c.48-.61,1.09-1.1,1.83-1.45.74-.35,1.56-.52,2.44-.52,1.69,0,3.05.53,4.09,1.6Z"/>
    </g>
    <g>
      <path class="cls-3" d="M593.61,271.86c.53-.98,1.27-1.74,2.21-2.28s2.02-.81,3.24-.81c1.56,0,2.86.39,3.88,1.17,1.03.78,1.71,1.88,2.06,3.29h-3.44c-.18-.55-.49-.98-.92-1.29-.43-.31-.97-.47-1.61-.47-.91,0-1.63.33-2.16.99-.53.66-.8,1.6-.8,2.81s.27,2.13.8,2.79c.53.66,1.25.99,2.16.99,1.29,0,2.13-.58,2.53-1.73h3.44c-.35,1.37-1.04,2.45-2.07,3.26-1.03.81-2.32,1.21-3.87,1.21-1.22,0-2.29-.27-3.24-.81s-1.68-1.3-2.21-2.28-.8-2.12-.8-3.43.27-2.45.8-3.43Z"/>
      <path class="cls-3" d="M609.67,281c-.97-.54-1.74-1.3-2.29-2.29-.56-.99-.83-2.13-.83-3.42s.28-2.43.85-3.42c.57-.99,1.35-1.75,2.34-2.29.99-.54,2.09-.81,3.3-.81s2.32.27,3.3.81c.99.54,1.77,1.3,2.34,2.29.57.99.85,2.13.85,3.42s-.29,2.43-.88,3.42c-.59.99-1.37,1.75-2.37,2.29s-2.11.81-3.34.81-2.31-.27-3.28-.81ZM614.58,278.6c.51-.28.92-.7,1.22-1.26.3-.56.46-1.25.46-2.05,0-1.2-.32-2.12-.95-2.77-.63-.65-1.4-.97-2.31-.97s-1.67.32-2.29.97-.92,1.57-.92,2.77.3,2.12.9,2.77c.6.65,1.36.97,2.27.97.58,0,1.12-.14,1.63-.42Z"/>
      <path class="cls-3" d="M641.31,270.22c.95.95,1.42,2.27,1.42,3.98v7.41h-3.19v-6.97c0-.99-.25-1.74-.75-2.27-.5-.52-1.19-.79-2.05-.79s-1.55.26-2.06.79c-.51.52-.76,1.28-.76,2.27v6.97h-3.19v-6.97c0-.99-.25-1.74-.75-2.27-.5-.52-1.19-.79-2.05-.79s-1.58.26-2.09.79c-.51.52-.76,1.28-.76,2.27v6.97h-3.19v-12.62h3.19v1.53c.41-.53.94-.95,1.58-1.25.65-.3,1.36-.46,2.13-.46.99,0,1.87.21,2.64.63.78.42,1.37,1.01,1.8,1.79.41-.73,1.01-1.31,1.79-1.75.78-.44,1.63-.66,2.54-.66,1.55,0,2.8.48,3.75,1.42Z"/>
      <path class="cls-3" d="M650.65,269.35c.72-.39,1.55-.58,2.47-.58,1.08,0,2.05.27,2.93.8.87.53,1.56,1.29,2.07,2.27.51.98.76,2.12.76,3.41s-.26,2.44-.76,3.43c-.51,1-1.2,1.77-2.07,2.31-.87.55-1.85.82-2.93.82-.93,0-1.74-.19-2.45-.57-.71-.38-1.28-.86-1.72-1.44v7.82h-3.19v-18.64h3.19v1.82c.41-.58.98-1.06,1.7-1.45ZM655.16,273.27c-.31-.55-.72-.98-1.23-1.26-.51-.29-1.06-.43-1.65-.43s-1.12.15-1.63.44c-.51.3-.92.73-1.23,1.29-.31.56-.47,1.22-.47,1.98s.15,1.42.47,1.98.72.99,1.23,1.29c.51.3,1.05.44,1.63.44s1.14-.15,1.65-.46c.51-.3.92-.74,1.23-1.3s.47-1.23.47-2.01-.16-1.42-.47-1.97Z"/>
      <path class="cls-3" d="M661.15,271.85c.51-.99,1.2-1.75,2.07-2.28s1.85-.8,2.93-.8c.94,0,1.77.19,2.47.57.71.38,1.27.86,1.7,1.44v-1.8h3.21v12.62h-3.21v-1.85c-.41.59-.98,1.08-1.7,1.47s-1.55.58-2.49.58c-1.06,0-2.03-.27-2.91-.82-.87-.55-1.56-1.32-2.07-2.31-.51-.99-.76-2.14-.76-3.43s.25-2.41.76-3.39ZM669.87,273.29c-.3-.56-.71-.98-1.23-1.28-.52-.3-1.07-.44-1.66-.44s-1.14.15-1.64.43-.91.71-1.22,1.26c-.31.56-.47,1.21-.47,1.97s.16,1.42.47,1.99.72,1.01,1.23,1.31c.51.3,1.05.46,1.63.46s1.15-.15,1.66-.44c.52-.3.93-.72,1.23-1.28.3-.56.46-1.22.46-1.99s-.15-1.44-.46-1.99Z"/>
      <path class="cls-3" d="M687.3,270.22c.93.95,1.39,2.27,1.39,3.98v7.41h-3.19v-6.97c0-1-.25-1.77-.75-2.31-.5-.54-1.19-.81-2.05-.81s-1.58.27-2.09.81c-.51.54-.76,1.31-.76,2.31v6.97h-3.19v-12.62h3.19v1.57c.42-.55.97-.98,1.63-1.29.66-.31,1.39-.47,2.18-.47,1.5,0,2.72.48,3.65,1.42Z"/>
      <path class="cls-3" d="M703.8,268.98l-7.82,18.59h-3.39l2.73-6.29-5.06-12.3h3.58l3.26,8.82,3.3-8.82h3.39Z"/>
    </g>
  </g>
</svg>
